<svg width="17" height="17" viewBox="0 0 17 17" fill="none" xmlns="http://www.w3.org/2000/svg">
<path d="M8.52775 8.84882L4.52771 15.7822C4.20035 16.3407 3.6676 16.749 3.04325 16.92C2.83394 16.9725 2.61903 16.9993 2.40325 17C1.98407 16.9979 1.57299 16.8844 1.21213 16.6711C0.655032 16.3444 0.249256 15.8111 0.0828435 15.1871C-0.0835686 14.563 0.00280751 13.8985 0.32323 13.3377L4.32326 6.40435C4.41666 6.25389 4.56224 6.14313 4.73216 6.09324C4.90384 6.0496 5.08579 6.07514 5.23883 6.16435L8.31441 7.94214C8.46128 8.03552 8.56581 8.18263 8.60568 8.35205C8.64554 8.52146 8.61757 8.69975 8.52775 8.84882ZM16.6345 4.56434C16.5827 4.3663 16.4914 4.18075 16.3662 4.01884C16.2409 3.85693 16.0843 3.72199 15.9056 3.62211L15.1411 3.17766C14.9531 3.06922 14.7444 3.00133 14.5286 2.97837C14.3127 2.9554 14.0944 2.97787 13.8878 3.04433H13.7722H13.4256C13.2272 3.05222 13.0319 2.99349 12.8708 2.8775C12.7097 2.76151 12.5921 2.59494 12.5367 2.40432C12.5367 2.40432 12.5367 2.40432 12.5367 2.33321C12.5154 2.27732 12.4886 2.22372 12.4567 2.17321C12.3995 2.10238 12.3303 2.0422 12.2522 1.99543L9.17664 0.217635C8.90237 0.0549619 8.58474 -0.0194914 8.26675 0.00435769C7.94876 0.0282068 7.64578 0.149206 7.39885 0.350969C6.30206 -0.04668 5.10045 -0.0464657 4.00381 0.351575C2.90717 0.749615 1.98517 1.52019 1.39879 2.52877L1.07879 3.07988C0.970359 3.268 0.928903 3.48733 0.961192 3.70205C0.99348 3.91677 1.09761 4.1142 1.25657 4.26211C1.43725 4.43848 1.67964 4.53735 1.93213 4.53767C2.09322 4.53989 2.25123 4.49341 2.38547 4.40434L2.48325 4.351C2.91836 4.05948 3.41249 3.86767 3.93034 3.78931C4.44818 3.71094 4.97695 3.74794 5.47883 3.89767C5.46622 4.02773 5.46622 4.15871 5.47883 4.28878C5.53246 4.48602 5.62444 4.67076 5.74951 4.83243C5.87458 4.99411 6.03028 5.12955 6.20773 5.23101L9.27442 7.0088C9.3691 7.06388 9.47604 7.09443 9.58553 7.09769H9.75442C9.94744 7.04853 10.1514 7.06562 10.3335 7.14621C10.5157 7.2268 10.6655 7.36624 10.7589 7.54214L10.91 7.85326L10.99 7.96881C11.0372 8.17686 11.1272 8.3728 11.2542 8.5442C11.3812 8.71559 11.5425 8.85868 11.7278 8.96438L12.4922 9.40882C12.6685 9.5133 12.8638 9.58151 13.0668 9.60943C13.2698 9.63736 13.4763 9.62445 13.6742 9.57145C13.8721 9.51845 14.0574 9.42644 14.2193 9.30082C14.3811 9.1752 14.5162 9.0185 14.6167 8.83993L16.3945 5.76435C16.5145 5.5914 16.5977 5.39566 16.639 5.18925C16.6803 4.98283 16.6787 4.77014 16.6345 4.56434Z" fill="white"/>
</svg>
