<svg width="15" height="15" viewBox="0 0 15 15" fill="none" xmlns="http://www.w3.org/2000/svg">
<path d="M7.5 7.5C9.57105 7.5 11.25 5.82106 11.25 3.75C11.25 1.67894 9.57105 0 7.5 0C5.42894 0 3.75 1.67894 3.75 3.75C3.75 5.82106 5.42894 7.5 7.5 7.5Z" fill="white"/>
<path d="M7.5 7.5H8.18182C11.9474 7.5 15 10.5526 15 14.3182C15 14.6948 14.6947 15 14.3182 15H0.681818C0.305257 15 0 14.6948 0 14.3182C0 10.5526 3.05261 7.5 6.81818 7.5H7.5Z" fill="white"/>
<path fill-rule="evenodd" clip-rule="evenodd" d="M7.5 6.75C9.15683 6.75 10.5 5.40686 10.5 3.75C10.5 2.09314 9.15683 0.75 7.5 0.75C5.84314 0.75 4.5 2.09314 4.5 3.75C4.5 5.40686 5.84314 6.75 7.5 6.75ZM9.57045 6.87713C10.5827 6.20558 11.25 5.05573 11.25 3.75C11.25 1.67894 9.57105 0 7.5 0C5.42894 0 3.75 1.67894 3.75 3.75C3.75 5.05573 4.41734 6.20558 5.42956 6.87713C5.84236 7.15095 6.31253 7.34527 6.81818 7.4382C7.03928 7.47877 7.26713 7.5 7.5 7.5H6.81818C6.29325 7.5 5.78222 7.55932 5.29135 7.6716C2.26087 8.3649 0 11.0775 0 14.3182C0 14.6947 0.305257 15 0.681818 15H14.3182C14.6947 15 15 14.6947 15 14.3182C15 11.0775 12.7391 8.3649 9.70867 7.6716C9.2178 7.55932 8.70675 7.5 8.18182 7.5H7.5C7.73287 7.5 7.96072 7.47877 8.18182 7.4382C8.68747 7.34527 9.15765 7.15095 9.57045 6.87713ZM8.18182 8.25H6.81818C3.48958 8.25 0.786922 10.93 0.750375 14.25H14.2496C14.2131 10.93 11.5104 8.25 8.18182 8.25Z" fill="white"/>
</svg>
