<svg width="25" height="25" viewBox="0 0 25 25" fill="none" xmlns="http://www.w3.org/2000/svg">
<g clip-path="url(#clip0_122_123)">
<path d="M22.2156 4.61615C22.2156 6.29919 20.8513 7.66352 19.1685 7.66352C17.4854 7.66352 16.1211 6.29919 16.1211 4.61615C16.1211 2.9333 17.4854 1.56897 19.1685 1.56897C20.8513 1.56897 22.2156 2.9333 22.2156 4.61615Z" fill="white"/>
<path d="M13.8941 8.56342L12.4477 6.39458V2.69394C12.4477 1.21727 11.2568 0 9.75437 0H2.69394C1.19915 0 0 1.21002 0 2.69394V7.00836C0 8.48885 1.19476 9.70211 2.69394 9.70211H13.2847C13.8681 9.70211 14.2183 9.0498 13.8941 8.56342ZM6.20346 6.95648H3.89099C3.49655 6.95648 3.15723 6.65302 3.13892 6.25897C3.11966 5.8382 3.45421 5.49164 3.87058 5.49164H6.22425C6.63986 5.49164 6.97517 5.8382 6.95572 6.25877C6.9376 6.65302 6.59809 6.95648 6.20346 6.95648ZM8.57773 4.21047H3.89137C3.49712 4.21047 3.158 3.90778 3.13911 3.5141C3.1189 3.09334 3.45383 2.74563 3.87058 2.74563H8.55694C8.95157 2.74563 9.29108 3.04909 9.3092 3.44334C9.32865 3.86391 8.99334 4.21047 8.57773 4.21047Z" fill="white"/>
<path d="M5.68771 18.1715C2.53315 18.1824 0 20.7867 0 23.9413V24.1019C0 24.598 0.402069 25 0.89817 25H10.5175C11.0136 25 11.4157 24.598 11.4157 24.1019V23.8793C11.4157 20.7201 8.84933 18.1605 5.68771 18.1715Z" fill="white"/>
<path d="M9.30219 14.5772C9.30219 16.5622 7.69315 18.1714 5.70798 18.1714C3.723 18.1714 2.11377 16.5622 2.11377 14.5772C2.11377 12.5923 3.723 10.983 5.70798 10.983C7.69315 10.983 9.30219 12.5923 9.30219 14.5772Z" fill="white"/>
<path d="M23.7906 11.7676H14.5459C14.8185 9.45667 16.7838 7.66357 19.1685 7.66357C21.5527 7.66357 23.5181 9.45667 23.7906 11.7676Z" fill="white"/>
<path d="M24.2675 13.2812C24.6721 13.2812 24.9999 13.6091 24.9999 14.0137V22.6988C24.9999 23.1148 24.6528 23.4503 24.2318 23.4303C23.8384 23.4116 23.5351 23.0722 23.5351 22.6778V21.8618H12.5913C12.099 20.186 11.0107 18.7622 9.57178 17.8389C10.3168 16.9575 10.7671 15.8188 10.7671 14.5771C10.7671 14.1294 10.7084 13.6953 10.5985 13.2812H24.2675Z" fill="white"/>
</g>
<defs>
<clipPath id="clip0_122_123">
<rect width="25" height="25" fill="white"/>
</clipPath>
</defs>
</svg>
